<svg width="241" height="50" viewBox="0 0 241 50" fill="none" xmlns="http://www.w3.org/2000/svg">
<path d="M44.25 20.3507L58.1808 20.3535L66.6517 20.3549V11.9629L44.25 20.3507Z" fill="#FF9D28"/>
<path d="M66.6519 11.9627V41.5908L77.2318 8L66.6519 11.9627Z" fill="#68C5ED"/>
<path d="M66.652 20.354L58.1812 20.3525L66.652 41.59V20.354Z" fill="#044D80"/>
<path d="M44.25 20.3506L60.3531 25.8026L58.1808 20.3534L44.25 20.3506Z" fill="#E54747"/>
<path d="M95.5687 33.7922C95.4459 33.9151 95.2412 34.0683 94.955 34.2524C94.6683 34.4366 94.2953 34.6207 93.835 34.8049C93.3748 34.9888 92.8119 35.1471 92.1474 35.2805C91.4823 35.4132 90.7207 35.4798 89.8615 35.4798C88.2044 35.4798 86.7724 35.2137 85.5656 34.6822C84.3584 34.1507 83.3612 33.4086 82.5739 32.4576C81.7863 31.5063 81.2086 30.3815 80.8403 29.0822C80.4721 27.7833 80.2881 26.3566 80.2881 24.8018C80.2881 23.2475 80.4875 21.8101 80.8864 20.4907C81.2852 19.1713 81.8836 18.0313 82.6813 17.0694C83.4791 16.1082 84.4764 15.3563 85.6731 14.8141C86.8698 14.2724 88.2759 14.001 89.8921 14.001C90.69 14.001 91.411 14.0728 92.0554 14.2157C92.6998 14.359 93.2622 14.5279 93.7431 14.722C94.2234 14.9167 94.6225 15.1209 94.9398 15.3357C95.2567 15.5505 95.497 15.7299 95.6609 15.8726C95.845 16.0367 96.0033 16.2308 96.1365 16.4556C96.2694 16.681 96.3359 16.9264 96.3359 17.1921C96.3359 17.6016 96.1825 18.0105 95.8757 18.4195C95.5713 18.8262 95.2325 19.2061 94.863 19.5548C94.6175 19.3093 94.3414 19.0591 94.0347 18.8032C93.7278 18.5475 93.385 18.3227 93.0067 18.128C92.628 17.9339 92.1984 17.7704 91.7179 17.6371C91.2371 17.5043 90.7002 17.4376 90.1071 17.4376C89.0638 17.4376 88.1894 17.6476 87.4836 18.0666C86.7779 18.4862 86.2101 19.0332 85.7806 19.7083C85.3511 20.3834 85.0442 21.1556 84.86 22.0249C84.6757 22.8976 84.5831 23.7872 84.584 24.6791C84.584 25.6408 84.676 26.5613 84.86 27.4406C85.0441 28.3202 85.361 29.0977 85.8113 29.7725C86.2609 30.4475 86.8493 30.9898 87.5756 31.3987C88.3014 31.8083 89.2066 32.0125 90.2911 32.0125C90.8635 32.0125 91.3905 31.9411 91.8714 31.7978C92.3517 31.6548 92.7765 31.4808 93.1447 31.2759C93.5129 31.0718 93.8351 30.8572 94.1112 30.6319C94.3874 30.4068 94.6175 30.2128 94.8017 30.0487C94.9475 30.2204 95.0907 30.3944 95.2312 30.5705C95.396 30.7769 95.5497 30.992 95.6914 31.2149C95.8295 31.4311 95.9525 31.6566 96.0597 31.8897C96.1618 32.1151 96.213 32.3194 96.213 32.5032C96.213 32.7695 96.1618 32.9944 96.0597 33.1784C95.957 33.3626 95.7935 33.5674 95.5687 33.7922ZM111.381 31.4389C111.381 33.0648 111.618 34.2481 112.091 34.989C111.721 35.1327 111.376 35.2358 111.057 35.2975C110.738 35.3594 110.404 35.3901 110.054 35.3901C109.313 35.3901 108.752 35.246 108.372 34.958C107.991 34.6701 107.749 34.2585 107.646 33.7232C107.193 34.197 106.597 34.5981 105.856 34.9275C105.115 35.2561 104.209 35.4212 103.14 35.4212C102.584 35.4212 102.028 35.3441 101.473 35.1908C100.917 35.0362 100.413 34.7854 99.9599 34.437C99.507 34.088 99.1367 33.6213 98.8487 33.0365C98.5602 32.4518 98.4165 31.7391 98.4165 30.8982C98.4165 29.852 98.6683 29.0004 99.1728 28.3442C99.6769 27.6875 100.31 27.1696 101.071 26.79C101.832 26.4107 102.656 26.1497 103.541 26.0057C104.426 25.862 105.239 25.77 105.979 25.7284C106.227 25.7081 106.468 25.6975 106.705 25.6975H107.369V25.1357C107.369 24.3446 107.157 23.7827 106.736 23.4499C106.314 23.1171 105.629 22.9502 104.683 22.9502C103.798 22.9502 103.011 23.0944 102.321 23.3823C101.629 23.672 100.954 24.0019 100.3 24.3702C100.011 24.0212 99.7774 23.631 99.605 23.2126C99.43 22.7911 99.3426 22.4771 99.3426 22.2711C99.3426 21.9832 99.5017 21.7053 99.8211 21.4376C100.14 21.1705 100.577 20.9283 101.133 20.7122C101.689 20.4961 102.326 20.3215 103.047 20.1875C103.767 20.0538 104.529 19.9868 105.331 19.9868C106.443 19.9868 107.384 20.1002 108.156 20.3264C108.927 20.5531 109.555 20.9028 110.039 21.3759C110.522 21.8496 110.867 22.4409 111.073 23.1509C111.278 23.8609 111.382 24.6895 111.382 25.6358V31.4389H111.381ZM107.43 27.8582H106.998C106.854 27.8582 106.71 27.8689 106.566 27.8892C106.051 27.9307 105.542 27.9923 105.038 28.0742C104.533 28.1568 104.086 28.3008 103.695 28.5065C103.304 28.7124 102.985 28.9802 102.738 29.309C102.491 29.6385 102.368 30.0606 102.368 30.5748C102.368 31.1511 102.532 31.6396 102.862 32.0409C103.191 32.4423 103.746 32.643 104.529 32.643C104.919 32.643 105.29 32.5919 105.64 32.4884C105.99 32.386 106.298 32.2521 106.566 32.0874C106.833 31.9227 107.044 31.7428 107.199 31.547C107.353 31.3517 107.43 31.1718 107.43 31.007V27.8582H107.43ZM119.067 21.7771C119.395 21.3864 119.909 20.9899 120.606 20.5885C121.303 20.1873 122.186 19.9866 123.252 19.9866C124.012 19.9866 124.735 20.1153 125.422 20.3724C126.109 20.63 126.72 21.0468 127.253 21.6227C127.787 22.1991 128.212 22.9606 128.53 23.907C128.848 24.8538 129.007 26.0168 129.007 27.3951C129.007 29.0003 128.823 30.3228 128.453 31.3618C128.084 32.4014 127.607 33.2246 127.023 33.8315C126.438 34.4386 125.786 34.8656 125.069 35.1124C124.351 35.3594 123.632 35.483 122.915 35.483C122.32 35.483 121.801 35.416 121.361 35.2824C120.919 35.1483 120.545 34.9996 120.237 34.8347C119.93 34.6702 119.694 34.5059 119.53 34.3408C119.366 34.1763 119.263 34.0628 119.222 34.001V41.5893H115.024V20.4187C115.148 20.395 115.272 20.3745 115.397 20.3571C115.522 20.3369 115.667 20.3213 115.833 20.3107C116.029 20.2997 116.226 20.2946 116.423 20.2954C117.107 20.2954 117.688 20.4087 118.165 20.6349C118.642 20.8616 118.943 21.2421 119.067 21.7771ZM124.624 27.4876C124.624 26.8704 124.573 26.2945 124.47 25.7591C124.368 25.2243 124.199 24.7612 123.964 24.3701C123.729 23.9793 123.411 23.6755 123.012 23.4593C122.613 23.2433 122.127 23.1354 121.555 23.1354C120.695 23.1354 120.097 23.3003 119.759 23.6291C119.421 23.9586 119.253 24.319 119.253 24.7096V31.2539C119.416 31.4188 119.707 31.614 120.127 31.8404C120.547 32.067 121.032 32.1798 121.585 32.1798C122.629 32.1798 123.396 31.7686 123.887 30.9452C124.378 30.1222 124.624 28.9694 124.624 27.4876ZM132.248 32.7974C132.103 32.386 132.011 31.9536 131.97 31.5007C131.929 31.0491 131.908 30.5958 131.908 30.1423V15.8192C132.062 15.7976 132.217 15.777 132.371 15.7575C132.525 15.7363 132.679 15.7209 132.834 15.7112C132.998 15.7011 133.163 15.696 133.328 15.6959C133.657 15.6959 133.986 15.7268 134.316 15.7884C134.645 15.8503 134.943 15.9737 135.211 16.1588C135.478 16.344 135.694 16.5964 135.859 16.9151C136.024 17.2344 136.106 17.6512 136.106 18.1653V20.3569H140.428V23.4749H136.106V30.0576C136.106 31.4931 136.693 32.2107 137.866 32.2107C138.154 32.2107 138.426 32.1646 138.684 32.0718C138.941 31.9792 139.172 31.8765 139.378 31.7632C139.584 31.6501 139.764 31.5318 139.919 31.4082C140.073 31.2846 140.181 31.1922 140.243 31.1305C140.551 31.5835 140.788 31.9756 140.953 32.3065C141.117 32.6378 141.2 32.9487 141.2 33.2392C141.2 33.5096 141.092 33.7746 140.875 34.0341C140.659 34.2936 140.355 34.5329 139.965 34.7508C139.574 34.9688 139.101 35.1453 138.545 35.2804C137.989 35.4155 137.382 35.4831 136.724 35.4831C135.447 35.4831 134.454 35.236 133.745 34.7423C133.035 34.2481 132.535 33.5998 132.248 32.7974ZM151.061 32.396C151.577 32.396 152.031 32.3396 152.424 32.2261C152.816 32.1134 153.167 31.9744 153.477 31.8097C153.786 31.6452 154.055 31.4651 154.282 31.2695C154.49 31.0908 154.697 30.9107 154.902 30.7291C155.15 31.0376 155.408 31.4342 155.676 31.9174C155.945 32.4014 156.079 32.7974 156.079 33.1059C156.079 33.5588 155.821 33.9704 155.307 34.3408C154.875 34.6702 154.262 34.9532 153.471 35.1895C152.678 35.426 151.747 35.5445 150.677 35.5445C149.709 35.5445 148.758 35.4212 147.822 35.1742C146.885 34.9274 146.051 34.4951 145.321 33.8776C144.59 33.2605 143.999 32.4322 143.546 31.3928C143.093 30.3537 142.867 29.042 142.867 27.4569C142.867 26.1603 143.068 25.0444 143.469 24.1077C143.87 23.1715 144.405 22.3946 145.074 21.7772C145.743 21.1598 146.499 20.7074 147.343 20.4188C148.187 20.131 149.051 19.9867 149.936 19.9867C151.089 19.9867 152.066 20.1672 152.869 20.5269C153.671 20.8872 154.324 21.3709 154.829 21.9778C155.333 22.5849 155.698 23.2795 155.925 24.0614C156.151 24.8437 156.264 25.6666 156.264 26.5309V26.963C156.264 27.1281 156.259 27.3026 156.249 27.4878C156.238 27.6731 156.228 27.8535 156.218 28.028C156.207 28.2032 156.192 28.342 156.172 28.4448H147.065C147.148 29.5767 147.499 30.5181 148.118 31.2695C148.737 32.0209 149.718 32.396 151.061 32.396ZM152.467 26.1295C152.467 25.1417 152.276 24.3392 151.893 23.7218C151.51 23.1045 150.821 22.7956 149.828 22.7956C148.979 22.7956 148.302 23.089 147.795 23.6755C147.287 24.2621 147.034 25.08 147.034 26.1294H152.467V26.1295ZM163.57 21.8551C163.693 21.6714 163.858 21.4674 164.064 21.2425C164.269 21.0179 164.522 20.8137 164.82 20.6301C165.118 20.4463 165.448 20.2929 165.808 20.1705C166.168 20.0479 166.554 19.9867 166.966 19.9867C167.213 19.9867 167.475 20.0074 167.753 20.0479C168.031 20.0889 168.288 20.1656 168.524 20.2775C168.761 20.39 168.951 20.5428 169.095 20.7367C169.239 20.9307 169.312 21.1704 169.312 21.4559C169.312 21.9049 169.198 22.4206 168.972 23.0028C168.745 23.5854 168.519 24.0823 168.293 24.4936C167.943 24.2056 167.593 23.9844 167.243 23.83C166.893 23.6757 166.482 23.5984 166.009 23.5984C165.371 23.5984 164.836 23.7842 164.404 24.1555C163.971 24.5269 163.755 24.9707 163.755 25.4867V35.4796H159.557V20.4187C159.68 20.395 159.803 20.3745 159.927 20.3571C160.051 20.3369 160.195 20.3213 160.36 20.3107C160.555 20.2997 160.75 20.2946 160.946 20.2954C161.604 20.2954 162.175 20.423 162.659 20.6779C163.143 20.9324 163.447 21.3251 163.57 21.8551ZM175.506 21.8551C175.629 21.6714 175.794 21.4674 176 21.2425C176.205 21.0179 176.458 20.8137 176.756 20.6301C177.054 20.4463 177.384 20.2929 177.744 20.1705C178.104 20.0479 178.49 19.9867 178.902 19.9867C179.148 19.9867 179.411 20.0074 179.689 20.0479C179.966 20.0889 180.223 20.1656 180.46 20.2775C180.697 20.39 180.887 20.5428 181.032 20.7367C181.175 20.9307 181.248 21.1704 181.248 21.4559C181.248 21.9049 181.134 22.4206 180.908 23.0028C180.681 23.5854 180.455 24.0823 180.229 24.4936C179.879 24.2056 179.529 23.9844 179.179 23.83C178.829 23.6757 178.418 23.5984 177.945 23.5984C177.307 23.5984 176.772 23.7842 176.339 24.1555C175.907 24.5269 175.691 24.9707 175.691 25.4867V35.4796H171.493V20.4187C171.616 20.395 171.74 20.3745 171.864 20.3571C171.987 20.3369 172.131 20.3213 172.296 20.3107C172.491 20.2997 172.686 20.2946 172.882 20.2954C173.541 20.2954 174.112 20.423 174.595 20.6779C175.078 20.9324 175.382 21.3251 175.506 21.8551ZM195.54 31.4389C195.54 33.0648 195.777 34.2481 196.25 34.989C195.88 35.1327 195.535 35.2358 195.216 35.2975C194.897 35.3594 194.562 35.3901 194.213 35.3901C193.472 35.3901 192.911 35.246 192.531 34.958C192.149 34.6701 191.908 34.2585 191.805 33.7232C191.352 34.197 190.755 34.5981 190.015 34.9275C189.274 35.2561 188.368 35.4212 187.298 35.4212C186.742 35.4212 186.187 35.3441 185.631 35.1908C185.076 35.0362 184.571 34.7854 184.119 34.437C183.666 34.088 183.295 33.6213 183.007 33.0365C182.719 32.4518 182.575 31.7391 182.575 30.8982C182.575 29.852 182.827 29.0004 183.332 28.3442C183.835 27.6875 184.468 27.1696 185.23 26.79C185.991 26.4107 186.814 26.1497 187.7 26.0057C188.584 25.862 189.397 25.77 190.138 25.7284C190.379 25.7082 190.622 25.6979 190.864 25.6975H191.527V25.1357C191.527 24.3446 191.316 23.7827 190.894 23.4499C190.472 23.1171 189.788 22.9502 188.842 22.9502C187.957 22.9502 187.169 23.0944 186.48 23.3823C185.788 23.6721 185.112 24.0019 184.458 24.3702C184.17 24.0212 183.936 23.631 183.764 23.2126C183.589 22.7911 183.501 22.4771 183.501 22.2711C183.501 21.9832 183.66 21.7053 183.98 21.4376C184.299 21.1705 184.736 20.9283 185.292 20.7122C185.847 20.4961 186.485 20.3215 187.205 20.1875C187.926 20.0538 188.687 19.9868 189.49 19.9868C190.601 19.9868 191.543 20.1002 192.314 20.3264C193.086 20.5531 193.714 20.9028 194.197 21.3759C194.681 21.8496 195.025 22.4409 195.232 23.1509C195.437 23.8609 195.54 24.6895 195.54 25.6358V31.4389ZM191.589 27.8582H191.157C191.012 27.8582 190.868 27.8689 190.725 27.8892C190.21 27.9307 189.7 27.9923 189.197 28.0742C188.692 28.1568 188.245 28.3008 187.854 28.5065C187.463 28.7124 187.144 28.9802 186.897 29.309C186.65 29.6385 186.526 30.0606 186.526 30.5748C186.526 31.1511 186.691 31.6396 187.02 32.0409C187.349 32.4423 187.905 32.643 188.687 32.643C189.078 32.643 189.448 32.5919 189.799 32.4884C190.148 32.386 190.457 32.2521 190.725 32.0874C190.992 31.9227 191.203 31.7428 191.357 31.547C191.512 31.3517 191.589 31.1718 191.589 31.007V27.8582H191.589Z" fill="#044D80"/>
</svg>
