<svg width="241" height="50" viewBox="0 0 241 50" fill="none" xmlns="http://www.w3.org/2000/svg">
<path d="M97.7393 11H102.155V38.6004H97.7393V11ZM117.612 29.7958C117.612 34.0198 114.06 34.3565 113.003 34.3565C110.364 34.3565 109.883 31.8857 109.883 30.3953V19.8321H105.467V30.3732C105.467 32.9898 106.289 35.1492 107.728 36.5888C109 37.8618 110.906 38.5573 112.97 38.5573C114.434 38.5573 116.508 38.1013 117.612 37.0934V38.6004H122.028V19.8321H117.612V29.7958ZM130.86 13.208H126.444V19.8321H123.132V24.2482H126.444V38.6004H130.86V24.2482H134.172V19.8321H130.86V13.208ZM148.079 32.9887C147.117 33.8531 145.848 34.3322 144.455 34.3322C141.383 34.3322 139.128 32.0767 139.128 28.98C139.128 25.8832 141.311 23.7227 144.455 23.7227C145.824 23.7227 147.117 24.1786 148.103 25.0431L148.773 25.6194L151.751 22.6429L151.006 21.9706C149.254 20.3885 146.928 19.5009 144.453 19.5009C138.933 19.5009 134.925 23.4842 134.925 28.9568C134.925 34.4062 139.029 38.5319 144.453 38.5319C146.974 38.5319 149.324 37.6443 151.054 36.0368L151.774 35.3645L148.75 32.3903L148.079 32.9887ZM167.513 21.4683C166.241 20.1964 164.751 19.5009 162.686 19.5009C161.222 19.5009 159.564 19.9569 158.46 20.9637V11H154.044V38.6004H158.46V28.2613C158.46 24.0373 161.461 23.7017 162.517 23.7017C165.157 23.7017 165.084 26.1736 165.084 27.6618V38.6004H169.5V27.685C169.5 25.0685 168.954 22.909 167.513 21.4683Z" fill="black"/>
<path d="M144.309 25.835C145.155 25.835 145.967 26.1713 146.566 26.7701C147.165 27.3689 147.501 28.181 147.501 29.0278C147.501 29.8746 147.165 30.6867 146.566 31.2854C145.967 31.8842 145.155 32.2206 144.309 32.2206C143.462 32.2206 142.65 31.8842 142.051 31.2854C141.452 30.6867 141.116 29.8746 141.116 29.0278C141.116 28.181 141.452 27.3689 142.051 26.7701C142.65 26.1713 143.462 25.835 144.309 25.835Z" fill="#FF3D2E"/>
<path d="M91.5564 31.6689C89.8772 33.3967 87.5963 34.3329 85.1962 34.3329C80.2767 34.3329 76.6997 30.4688 76.6997 25.1651C76.6997 19.8372 80.2767 15.9731 85.1962 15.9731C87.5731 15.9731 89.8286 16.9082 91.5332 18.6128L92.2045 19.2852L95.1566 16.333L94.5085 15.6607C92.0609 13.1402 88.7489 11.7734 85.1962 11.7734C77.9483 11.7734 72.5 17.5331 72.5 25.1883C72.5 32.8204 77.9726 38.5568 85.1962 38.5568C88.7732 38.5568 92.0852 37.1658 94.5328 34.6453L95.1809 33.973L92.253 30.9734L91.5564 31.6689Z" fill="black"/>
</svg>
