<svg width="14" height="15" viewBox="0 0 14 15" fill="none" xmlns="http://www.w3.org/2000/svg">
<path d="M4.63168 2.30697C4.46764 2.47106 4.37549 2.69358 4.37549 2.92559C4.37549 3.15761 4.46764 3.38013 4.63168 3.54422L8.96293 7.87547L4.63168 12.2067C4.47229 12.3717 4.38409 12.5928 4.38609 12.8222C4.38808 13.0516 4.4801 13.2711 4.64234 13.4333C4.80457 13.5955 5.02403 13.6876 5.25345 13.6896C5.48287 13.6916 5.7039 13.6034 5.86893 13.444L10.8188 8.49409C10.9828 8.33001 11.075 8.10749 11.075 7.87547C11.075 7.64345 10.9828 7.42093 10.8188 7.25684L5.86893 2.30697C5.70484 2.14293 5.48232 2.05078 5.2503 2.05078C5.01828 2.05078 4.79576 2.14293 4.63168 2.30697Z" fill="#1B668F"/>
</svg>
