<svg width="240" height="50" viewBox="0 0 240 50" fill="none" xmlns="http://www.w3.org/2000/svg">
<path d="M81.014 21.7462L70.5204 11.2526C70.1577 10.9158 69.6136 10.9158 69.2767 11.2526L67.2039 13.3254L75.6247 21.7462C75.9615 22.083 75.9615 22.6531 75.6247 22.9899L66.9448 31.6698L69.0176 33.7426C69.3804 34.0794 69.9245 34.0794 70.2613 33.7426L80.9881 23.0158C81.3508 22.6531 81.3508 22.109 81.014 21.7462Z" fill="#009C9C"/>
<path d="M63.1358 12.0304L62.3844 11.279C62.0216 10.9422 61.4775 10.9422 61.1407 11.279L59.0679 13.3518L60.4411 14.725L63.1358 17.4197L65.8304 14.725L63.1358 12.0304Z" fill="#40E3E3"/>
<path d="M62.9024 27.6279L60.2077 30.3226L58.8345 31.6958L60.9073 33.7686C61.27 34.1055 61.8141 34.1055 62.151 33.7686L62.9024 33.0172L65.597 30.3226L62.9024 27.6279Z" fill="#40E3E3"/>
<path d="M67.5143 21.7448C67.8512 22.1076 67.8512 22.6517 67.5143 22.9885L62.9023 27.6005L65.597 30.2951L72.9036 22.9885C73.2405 22.6517 73.2405 22.0816 72.9036 21.7448L65.8561 14.6973L63.1355 17.3919L67.5143 21.7448Z" fill="#1ABAB8"/>
<path d="M50.3884 22.0053L57.695 14.6987L55.0004 12.004L54.2231 11.2526C53.8603 10.9158 53.3162 10.9158 52.9794 11.2526L42.2526 22.0053C41.9158 22.3421 41.9158 22.9122 42.2526 23.249L52.7462 33.7426C53.109 34.0794 53.6531 34.0794 53.9899 33.7426L54.7672 32.9912L57.4619 30.2965L50.4143 23.249C50.0516 22.9122 50.0516 22.3681 50.3884 22.0053Z" fill="#87F0F0"/>
<path d="M58.5241 22.0054L61.737 18.7925L59.0423 16.0978L57.6691 14.7246L50.4142 22.0313C50.0774 22.3681 50.0774 22.9381 50.4142 23.2749L57.4359 30.2966L58.8091 28.9234L61.5038 26.2287L58.5241 23.249C58.1873 22.9381 58.1873 22.3681 58.5241 22.0054Z" fill="#40E3E3"/>
<path d="M58.5242 23.2485L61.5039 26.2282L64.7167 23.0153C65.0536 22.6785 65.0536 22.1085 64.7167 21.7717L61.7371 18.792L58.5242 22.0048C58.2133 22.3676 58.2133 22.9117 58.5242 23.2485Z" fill="#17CFCF"/>
<path d="M89.4341 19.5432C89.4601 18.3513 89.6932 17.1854 90.1337 16.0713C90.5483 15.0608 91.1701 14.128 91.9474 13.3766C92.8025 12.5993 93.813 12.0034 94.9012 11.6406C96.2226 11.2002 97.6217 10.9929 98.995 11.0188C100.55 10.967 102.104 11.2002 103.555 11.7184C104.592 12.107 105.576 12.677 106.405 13.4284C107.053 13.9984 107.545 14.698 107.882 15.4753C108.141 16.0453 108.297 16.6413 108.374 17.2631C108.4 17.4963 108.323 17.7295 108.141 17.885C107.96 18.0404 107.753 18.1182 107.519 18.1182H104.954C104.747 18.1182 104.566 18.0663 104.41 17.9368C104.281 17.8331 104.177 17.7036 104.125 17.574C104.073 17.4963 103.97 17.3149 103.788 17.0299C103.555 16.6931 103.27 16.3822 102.933 16.149C102.467 15.8122 101.949 15.5271 101.405 15.3199C100.653 15.0608 99.8241 14.9312 99.0209 14.9571C97.6476 14.8794 96.2744 15.3458 95.2121 16.2267C94.2534 17.1077 93.7093 18.3513 93.6834 19.6728C93.6316 20.476 93.6316 21.331 93.6316 22.2638C93.6316 23.1706 93.6316 24.0516 93.6834 24.8548C93.7352 26.6167 94.2534 27.8863 95.2121 28.6636C96.3003 29.4927 97.6476 29.9073 98.995 29.8554C99.7205 29.8554 100.446 29.7777 101.146 29.5963C101.767 29.4409 102.337 29.1559 102.83 28.7672C103.322 28.3786 103.711 27.8604 103.944 27.2644C104.229 26.5389 104.358 25.7616 104.332 24.9843V24.7252H100.472C100.239 24.7252 100.031 24.6475 99.8759 24.4661C99.7205 24.3107 99.6168 24.1034 99.6168 23.8702V21.616C99.6168 21.1496 100.005 20.761 100.472 20.761H107.778C108.245 20.761 108.634 21.1496 108.634 21.616V25.088C108.659 26.2798 108.452 27.4717 108.038 28.5858C107.649 29.6222 107.027 30.555 106.224 31.3323C105.369 32.1355 104.332 32.7574 103.218 33.146C100.498 34.001 97.5699 34.001 94.8234 33.146C93.7352 32.7833 92.7247 32.1873 91.8956 31.41C91.1183 30.6327 90.4965 29.7 90.1078 28.6636C89.6932 27.5494 89.4601 26.3576 89.4341 25.1657C89.4341 24.7771 89.4082 24.3107 89.3823 23.8443C89.3823 23.352 89.3823 22.8597 89.3823 22.3415C89.3823 21.8233 89.3823 21.331 89.3823 20.8646C89.3823 20.3723 89.4082 19.9578 89.4341 19.5432Z" fill="#424A52"/>
<path d="M118.402 20.529C117.858 20.5031 117.34 20.6068 116.822 20.7881C116.407 20.9436 116.045 21.1768 115.734 21.4877C115.449 21.7468 115.215 22.0836 115.06 22.4464C114.905 22.7573 114.801 23.0941 114.775 23.431H121.926C121.874 23.0941 121.797 22.7573 121.693 22.4464C121.563 22.0836 121.382 21.7727 121.123 21.4877C120.838 21.1768 120.475 20.9436 120.087 20.7881C119.542 20.5809 118.972 20.5031 118.402 20.529ZM110.655 25.2706C110.655 24.1305 110.837 23.0164 111.199 21.9282C111.536 20.9177 112.054 19.9849 112.754 19.1817C113.428 18.4044 114.283 17.7826 115.215 17.368C116.226 16.9275 117.314 16.6943 118.402 16.6943C119.491 16.6684 120.579 16.9016 121.589 17.3421C122.522 17.7566 123.377 18.3526 124.077 19.104C124.75 19.8554 125.294 20.7104 125.657 21.6691C126.02 22.6537 126.227 23.6901 126.201 24.7524V26.1774C126.201 26.6438 125.813 27.0325 125.346 27.0325H114.775C114.775 27.4729 114.879 27.9134 115.06 28.3021C115.267 28.6648 115.526 28.9757 115.863 29.2089C116.226 29.468 116.615 29.6494 117.029 29.7789C117.47 29.9085 117.936 29.9603 118.402 29.9603C118.946 29.9862 119.517 29.9085 120.061 29.753C120.423 29.6494 120.786 29.468 121.097 29.2348C121.278 29.1053 121.46 28.9757 121.667 28.8721C121.848 28.7944 122.056 28.7684 122.263 28.7684H124.802C125.035 28.7684 125.269 28.8721 125.424 29.0275C125.605 29.183 125.683 29.3903 125.657 29.6235C125.579 30.038 125.424 30.4267 125.165 30.7635C124.802 31.3076 124.336 31.774 123.792 32.1368C123.092 32.629 122.315 33.0177 121.512 33.2768C120.501 33.6136 119.439 33.7691 118.402 33.7432C117.314 33.7432 116.226 33.5359 115.215 33.1213C114.283 32.7327 113.428 32.1368 112.754 31.3854C112.054 30.5822 111.536 29.6753 111.199 28.6648C110.811 27.6025 110.629 26.4365 110.655 25.2706Z" fill="#424A52"/>
<path d="M133.793 27.5502C133.767 28.1202 133.948 28.6902 134.311 29.1048C134.648 29.4934 135.296 29.7007 136.254 29.7007H138.172C138.638 29.7007 139.027 30.0894 139.027 30.5557V32.6545C139.027 33.1208 138.638 33.5095 138.172 33.5095H135.814C133.819 33.5095 132.316 33.0172 131.254 32.0585C130.191 31.0999 129.673 29.623 129.647 27.6538V20.8395H127.548C127.315 20.8395 127.108 20.7617 126.952 20.5804C126.797 20.4249 126.693 20.2176 126.693 19.9844V17.8857C126.693 17.6525 126.771 17.4452 126.952 17.2898C127.108 17.1343 127.315 17.0307 127.548 17.0307H129.647V11.8746C129.647 11.4082 130.036 11.0195 130.502 11.0195H132.912C133.378 11.0195 133.767 11.4082 133.767 11.8746V17.0307H137.861C138.327 17.0566 138.664 17.4193 138.69 17.8857V19.9844C138.69 20.4508 138.301 20.8395 137.835 20.8395H133.741L133.793 27.5502Z" fill="#424A52"/>
<path d="M154.599 25.2438L151.101 16.2271L147.629 25.2438H154.599ZM152.837 11.3301C153.122 11.3042 153.381 11.4078 153.588 11.5892C153.795 11.8224 153.951 12.1074 154.055 12.3924L161.802 32.4209C161.828 32.4987 161.828 32.5764 161.828 32.6282C161.828 33.0946 161.439 33.4832 160.973 33.4832H158.692C158.382 33.5092 158.045 33.4314 157.812 33.2241C157.656 33.0687 157.552 32.8873 157.475 32.7059L156.101 29.1822H146.1L144.727 32.7059C144.649 32.9132 144.52 33.0687 144.39 33.2241C144.131 33.4314 143.82 33.5351 143.509 33.4832H141.229C140.763 33.4832 140.374 33.0946 140.374 32.6282C140.374 32.5505 140.374 32.4728 140.4 32.4209L148.147 12.3924C148.251 12.1074 148.406 11.8224 148.613 11.5892C148.821 11.4078 149.106 11.3042 149.365 11.3301H152.837Z" fill="#424A52"/>
<path d="M175.405 26.151C175.457 25.5551 175.457 24.9591 175.405 24.3891C175.275 23.0159 174.861 22.0313 174.135 21.4354C173.41 20.8135 172.477 20.5026 171.518 20.5285C170.56 20.5026 169.627 20.8135 168.901 21.4354C168.15 22.109 167.735 23.0677 167.684 24.0523C167.632 24.4409 167.606 24.8555 167.632 25.2442C167.632 25.6587 167.658 26.0474 167.684 26.436C167.735 27.4206 168.176 28.3534 168.901 29.027C169.627 29.6748 170.56 30.0116 171.518 29.9857C172.477 30.0116 173.41 29.6748 174.135 29.0789C174.861 28.4829 175.275 27.4983 175.405 26.151ZM172.477 33.8204C171.881 33.8204 171.285 33.7686 170.715 33.639C170.249 33.5354 169.782 33.3799 169.342 33.1726C169.005 32.9913 168.668 32.784 168.357 32.5249C168.124 32.3435 167.891 32.1362 167.684 31.9031V38.6397C167.684 39.1061 167.295 39.4947 166.829 39.4947H164.445C163.978 39.4947 163.59 39.1061 163.59 38.6397V17.8857C163.59 17.4193 163.978 17.0307 164.445 17.0307H166.855C167.321 17.0307 167.71 17.4193 167.71 17.8857V18.6112C167.917 18.378 168.124 18.1707 168.383 17.9893C168.694 17.7561 169.031 17.5488 169.394 17.3675C169.834 17.1602 170.301 17.0047 170.767 16.9011C171.337 16.7715 171.933 16.7197 172.529 16.7197C173.513 16.6938 174.498 16.927 175.405 17.3416C176.234 17.7302 176.985 18.3002 177.581 18.9998C178.203 19.6994 178.67 20.5026 179.006 21.3835C179.343 22.2904 179.55 23.2232 179.602 24.1818C179.628 24.4928 179.628 24.8555 179.628 25.296C179.628 25.7364 179.628 26.0992 179.602 26.4101C179.55 27.3688 179.369 28.3275 179.006 29.2084C178.67 30.0893 178.203 30.8926 177.581 31.5921C176.985 32.2917 176.234 32.8358 175.405 33.2504C174.446 33.639 173.462 33.8463 172.477 33.8204Z" fill="#424A52"/>
<path d="M193.308 26.151C193.36 25.5551 193.36 24.9591 193.308 24.3891C193.179 23.0159 192.764 22.0313 192.039 21.4354C191.313 20.8135 190.38 20.5026 189.422 20.5285C188.463 20.5026 187.53 20.8135 186.805 21.4354C186.053 22.109 185.639 23.0677 185.587 24.0523C185.535 24.4409 185.509 24.8555 185.535 25.2442C185.535 25.6587 185.561 26.0474 185.587 26.436C185.639 27.4206 186.079 28.3534 186.805 29.027C187.53 29.6748 188.463 30.0116 189.422 29.9857C190.38 30.0116 191.313 29.6748 192.039 29.0789C192.764 28.4829 193.179 27.4983 193.308 26.151ZM190.354 33.7945C189.759 33.7945 189.163 33.7427 188.593 33.6131C188.126 33.5095 187.66 33.354 187.219 33.1467C186.857 32.9654 186.52 32.7581 186.235 32.5249C186.002 32.3435 185.768 32.1362 185.561 31.9031V38.6397C185.561 38.8729 185.457 39.0801 185.302 39.2356C185.147 39.3911 184.939 39.4947 184.706 39.4947H182.296C181.83 39.4947 181.441 39.1061 181.441 38.6397V17.8857C181.441 17.4193 181.83 17.0307 182.296 17.0307H184.706C185.172 17.0307 185.561 17.4193 185.561 17.8857V18.6112C185.768 18.378 186.002 18.1707 186.235 17.9893C186.546 17.7561 186.883 17.5488 187.219 17.3675C187.66 17.1602 188.126 17.0047 188.593 16.9011C189.163 16.7715 189.759 16.7197 190.354 16.7197C191.339 16.6938 192.324 16.927 193.231 17.3416C194.06 17.7302 194.811 18.3002 195.407 18.9998C196.029 19.6994 196.495 20.5026 196.832 21.3835C197.169 22.2904 197.376 23.2232 197.428 24.1818C197.454 24.4928 197.454 24.8555 197.454 25.296C197.454 25.7364 197.454 26.0992 197.428 26.4101C197.376 27.3688 197.195 28.3275 196.832 29.2084C196.495 30.0893 196.029 30.8926 195.407 31.5921C194.785 32.2917 194.06 32.8358 193.231 33.2504C192.324 33.6649 191.339 33.8722 190.354 33.8722" fill="#424A52"/>
</svg>
