<svg width="240" height="50" viewBox="0 0 240 50" fill="none" xmlns="http://www.w3.org/2000/svg">
<path d="M81.3193 24.6455H86.1358V31.4105C84.6329 31.8933 82.7354 32.1581 80.7629 32.1581C72.7687 32.1581 68.0703 25.3124 68.0703 18.6267C68.0703 12.0695 72.3201 7.46994 78.2492 7.46994C82.001 7.46994 84.1841 8.74096 86.1372 10.5115V12.7186L89.7992 9.05649C87.4829 7.48936 84.1289 6 79.3348 6C68.8105 6 64 13.5292 64 19.7168C64 28.5243 70.4151 33.83 78.4766 33.83C82.3855 33.83 85.8561 33.2333 89.8652 32.1178V25.1285C89.8652 24.7711 90.0222 24.5259 90.257 24.3105L91.522 23.0455H82.9313L81.3193 24.6455Z" fill="url(#paint0_linear_202_430)"/>
<path d="M102.896 15.4521C96.8383 15.4521 93.085 19.8785 93.085 24.5769C93.085 28.6323 96.1087 33.4472 102.235 33.4472C108.128 33.4472 111.744 29.0122 111.744 24.2315C111.744 19.7784 108.21 15.4538 102.896 15.4538V15.4521ZM101.891 16.7427C106.162 16.7427 108.064 22.3068 108.064 26.2755C108.064 32.1777 103.636 32.2943 103.107 32.2943C101.08 32.2943 99.6643 31.0697 98.6042 29.4636C97.6711 27.9833 96.759 25.2333 96.759 22.5461C96.759 19.8694 97.6351 18.5625 99.014 17.601C100.142 16.8802 101.197 16.7427 101.889 16.7427H101.891Z" fill="url(#paint1_linear_202_430)"/>
<path d="M142.495 15.4502C137.204 15.4502 134.342 18.7998 134.342 22.5397C134.342 25.3868 136.381 28.5988 140.589 28.5988H141.654C141.654 28.5988 141.364 29.3031 141.362 29.9835C141.362 30.9871 141.723 31.5506 142.488 32.4179C135.248 32.859 132.338 35.7795 132.338 38.9182C132.338 41.6668 134.97 44.3719 140.501 44.3719C147.049 44.3719 150.441 40.7365 150.441 37.1688C150.441 34.6536 149.187 33.2749 146.014 30.8973C145.081 30.1721 144.9 29.7102 144.9 29.1674C144.9 28.3898 145.365 27.8752 145.536 27.681C145.836 27.3639 146.357 27.0021 146.551 26.8286C147.617 25.9254 149.123 24.5887 149.123 21.9209C149.123 20.0906 148.362 18.516 146.627 17.0416H148.745L150.336 15.4505H142.495V15.4502ZM141.035 16.6405C141.995 16.6405 142.797 16.98 143.643 17.6843C144.582 18.5306 146.082 20.8051 146.082 23.6193C146.082 26.6564 143.722 27.4878 142.445 27.4878C141.82 27.4878 141.071 27.3128 140.437 26.8792C139.028 25.9657 137.63 23.534 137.63 20.6405C137.63 18.0297 139.185 16.6405 141.035 16.6405ZM143.13 33.5709C143.534 33.5709 143.824 33.6039 143.824 33.6039C143.824 33.6039 144.776 34.2843 145.442 34.7926C146.991 36.0172 147.957 36.9533 147.957 38.6208C147.957 40.9132 145.831 42.7106 142.387 42.7106C138.607 42.7106 135.718 40.9505 135.718 38.0766C135.718 35.6959 137.697 33.647 143.13 33.5709Z" fill="url(#paint2_linear_202_430)"/>
<path d="M151.481 32.923H158.744L159.85 31.8166L157.767 31.5564C157.206 31.4876 156.873 31.0031 156.873 30.5336V8.59532C156.873 8.16317 157.073 7.94185 157.22 7.80114L158.53 6.49121H152.336L150.724 8.1032H153.132V30.828C153.132 31.151 153.03 31.3708 152.812 31.5966L151.481 32.923Z" fill="url(#paint3_linear_202_430)"/>
<path d="M168.585 15.4521C164.529 15.4521 160.221 18.543 160.221 24.0923C160.221 28.6754 163.312 33.4472 169.087 33.4472C170.527 33.4472 171.713 33.2619 172.824 32.752C174.016 32.2032 175.163 31.312 176 30.192C174.42 30.989 173.131 31.5124 171.418 31.5124C168.164 31.5124 165.027 29.1647 163.929 24.8491L175.424 20.203C174.76 17.8359 172.888 15.4521 168.586 15.4521H168.585ZM167.834 16.7217C170.01 16.7217 171.583 18.5116 171.583 19.9128C171.583 20.3659 171.299 20.6052 170.736 20.8265L163.671 23.6841C163.671 23.6841 163.48 22.7943 163.48 21.8328C163.48 17.7999 166.395 16.7217 167.834 16.7217Z" fill="url(#paint4_linear_202_430)"/>
<path d="M123.223 15.7158C117.165 15.7158 113.412 20.1422 113.412 24.8406C113.412 28.896 116.435 33.7109 122.562 33.7109C128.455 33.7109 132.071 29.2758 132.071 24.4952C132.071 20.042 128.537 15.7175 123.223 15.7175V15.7158ZM122.218 17.0063C126.488 17.0063 128.39 22.5705 128.39 26.5392C128.39 32.4413 123.963 32.558 123.433 32.558C121.407 32.558 119.991 31.3334 118.931 29.7272C117.998 28.247 117.086 25.4969 117.086 22.8098C117.086 20.1331 117.962 18.8262 119.341 17.8647C120.468 17.1439 121.524 17.0063 122.216 17.0063H122.218Z" fill="url(#paint5_linear_202_430)"/>
<defs>
<linearGradient id="paint0_linear_202_430" x1="77.6926" y1="5.92122" x2="77.6926" y2="33.8285" gradientUnits="userSpaceOnUse">
<stop stop-color="#196EEF"/>
<stop offset="0.5" stop-color="#186DEE"/>
<stop offset="1" stop-color="#1065E7"/>
</linearGradient>
<linearGradient id="paint1_linear_202_430" x1="102.347" y1="15.4095" x2="102.347" y2="33.4548" gradientUnits="userSpaceOnUse">
<stop stop-color="#DE5744"/>
<stop offset="0.5" stop-color="#DB4632"/>
<stop offset="1" stop-color="#D13D29"/>
</linearGradient>
<linearGradient id="paint2_linear_202_430" x1="141.323" y1="15.4091" x2="141.323" y2="44.3829" gradientUnits="userSpaceOnUse">
<stop stop-color="#1A6FEF"/>
<stop offset="0.25" stop-color="#1E72EF"/>
<stop offset="0.5" stop-color="#166BEC"/>
<stop offset="0.75" stop-color="#1267E9"/>
<stop offset="1" stop-color="#1063E5" stop-opacity="0.87"/>
</linearGradient>
<linearGradient id="paint3_linear_202_430" x1="155.221" y1="6.42899" x2="155.221" y2="32.9484" gradientUnits="userSpaceOnUse">
<stop stop-color="#0AA561"/>
<stop offset="0.5" stop-color="#009B58"/>
<stop offset="1" stop-color="#00914B"/>
</linearGradient>
<linearGradient id="paint4_linear_202_430" x1="168.045" y1="15.4095" x2="168.045" y2="33.4051" gradientUnits="userSpaceOnUse">
<stop stop-color="#DE5644"/>
<stop offset="0.5" stop-color="#DA4531"/>
<stop offset="1" stop-color="#CE3A28"/>
</linearGradient>
<linearGradient id="paint5_linear_202_430" x1="122.674" y1="15.7124" x2="122.674" y2="33.6827" gradientUnits="userSpaceOnUse">
<stop stop-color="#FFC01A"/>
<stop offset="0.5" stop-color="#FFBA03"/>
<stop offset="1" stop-color="#FFB300"/>
</linearGradient>
</defs>
</svg>
