<svg width="89" height="16" viewBox="0 0 89 16" fill="none" xmlns="http://www.w3.org/2000/svg">
<g clip-path="url(#clip0_95_387)">
<path d="M4.11212 15.4425C3.72612 15.6405 3.28812 15.2935 3.36612 14.8505L4.19612 10.1205L0.673118 6.76452C0.344118 6.45052 0.515118 5.87652 0.956118 5.81452L5.85412 5.11852L8.03812 0.791523C8.23512 0.401523 8.76812 0.401523 8.96512 0.791523L11.1491 5.11852L16.0471 5.81452C16.4881 5.87652 16.6591 6.45052 16.3291 6.76452L12.8071 10.1205L13.6371 14.8505C13.7151 15.2935 13.2771 15.6405 12.8911 15.4425L8.50012 13.1865L4.11112 15.4425H4.11212Z" fill="#FDB53C"/>
</g>
<g clip-path="url(#clip1_95_387)">
<path d="M22.1121 15.4425C21.7261 15.6405 21.2881 15.2935 21.3661 14.8505L22.1961 10.1205L18.6731 6.76452C18.3441 6.45052 18.5151 5.87652 18.9561 5.81452L23.8541 5.11852L26.0381 0.791523C26.2351 0.401523 26.7681 0.401523 26.9651 0.791523L29.1491 5.11852L34.0471 5.81452C34.4881 5.87652 34.6591 6.45052 34.3291 6.76452L30.8071 10.1205L31.6371 14.8505C31.7151 15.2935 31.2771 15.6405 30.8911 15.4425L26.5001 13.1865L22.1111 15.4425H22.1121Z" fill="#FDB53C"/>
</g>
<g clip-path="url(#clip2_95_387)">
<path d="M40.1121 15.4425C39.7261 15.6405 39.2881 15.2935 39.3661 14.8505L40.1961 10.1205L36.6731 6.76452C36.3441 6.45052 36.5151 5.87652 36.9561 5.81452L41.8541 5.11852L44.0381 0.791523C44.2351 0.401523 44.7681 0.401523 44.9651 0.791523L47.1491 5.11852L52.0471 5.81452C52.4881 5.87652 52.6591 6.45052 52.3291 6.76452L48.8071 10.1205L49.6371 14.8505C49.7151 15.2935 49.2771 15.6405 48.8911 15.4425L44.5001 13.1865L40.1111 15.4425H40.1121Z" fill="#FDB53C"/>
</g>
<g clip-path="url(#clip3_95_387)">
<path d="M58.1121 15.4425C57.7261 15.6405 57.2881 15.2935 57.3661 14.8505L58.1961 10.1205L54.6731 6.76452C54.3441 6.45052 54.5151 5.87652 54.9561 5.81452L59.8541 5.11852L62.0381 0.791523C62.2351 0.401523 62.7681 0.401523 62.9651 0.791523L65.1491 5.11852L70.0471 5.81452C70.4881 5.87652 70.6591 6.45052 70.3291 6.76452L66.8071 10.1205L67.6371 14.8505C67.7151 15.2935 67.2771 15.6405 66.8911 15.4425L62.5001 13.1865L58.1111 15.4425H58.1121Z" fill="#FDB53C"/>
</g>
<g clip-path="url(#clip4_95_387)">
<path d="M76.1121 15.4425C75.7261 15.6405 75.2881 15.2935 75.3661 14.8505L76.1961 10.1205L72.6731 6.76452C72.3441 6.45052 72.5151 5.87652 72.9561 5.81452L77.8541 5.11852L80.0381 0.791523C80.2351 0.401523 80.7681 0.401523 80.9651 0.791523L83.1491 5.11852L88.0471 5.81452C88.4881 5.87652 88.6591 6.45052 88.3291 6.76452L84.8071 10.1205L85.6371 14.8505C85.7151 15.2935 85.2771 15.6405 84.8911 15.4425L80.5001 13.1865L76.1111 15.4425H76.1121Z" fill="#FDB53C"/>
<mask id="mask0_95_387" style="mask-type:alpha" maskUnits="userSpaceOnUse" x="81" y="0" width="8" height="16">
<rect x="81.5" width="7" height="16" fill="black"/>
</mask>
<g mask="url(#mask0_95_387)">
<path d="M73.0183 6.40282C73.0183 6.40277 73.0182 6.40272 73.0182 6.40268C73.0088 6.39365 73.0051 6.38582 73.0032 6.37752C73.0007 6.36706 73.0006 6.35275 73.0051 6.33777C73.0095 6.32274 73.0163 6.31463 73.0191 6.31201C73.0192 6.31192 73.0193 6.31183 73.0194 6.31174C73.02 6.31106 73.0207 6.31036 73.0257 6.30966L73.0265 6.30955L77.9245 5.61355L78.1829 5.57683L78.3005 5.34382L80.4844 1.01696C80.4884 1.00897 80.4919 1.00484 80.4935 1.00303C80.4952 1.00118 80.4963 1.00046 80.4968 1.00019C80.4977 0.999646 80.4992 0.999023 80.5016 0.999023C80.504 0.999023 80.5055 0.999646 80.5065 1.00019C80.5069 1.00046 80.508 1.00118 80.5097 1.00303C80.5114 1.00484 80.5148 1.00897 80.5188 1.01696L82.7028 5.34382L82.8204 5.57683L83.0788 5.61355L87.9768 6.30955L87.9775 6.30965C87.9825 6.31036 87.9832 6.31105 87.9838 6.31171C87.9839 6.3118 87.984 6.31189 87.9841 6.31198C87.9869 6.31455 87.9935 6.32258 87.998 6.33749C88.0024 6.35233 88.0023 6.3665 87.9998 6.37686C87.9979 6.38511 87.9942 6.39305 87.9845 6.4023L87.9842 6.40254L84.4622 9.75854L84.2684 9.94324L84.3146 10.2069L85.1446 14.9369L85.1447 14.9372C85.148 14.9562 85.1452 14.9676 85.1425 14.9746C85.1392 14.983 85.1336 14.9903 85.1274 14.9951C85.1251 14.997 85.1231 14.9982 85.1218 14.9988C85.1211 14.9985 85.1203 14.9982 85.1194 14.9977C85.1194 14.9977 85.1194 14.9977 85.1193 14.9976L80.7286 12.7418L80.5001 12.6244L80.2715 12.7418L75.8825 14.9978L75.8826 14.9983C75.8822 14.9985 75.8818 14.9987 75.8814 14.9988C75.8801 14.9981 75.8782 14.997 75.8758 14.9951C75.8696 14.9903 75.8641 14.983 75.8607 14.9746C75.858 14.9676 75.8552 14.9562 75.8585 14.9372L75.8586 14.9369L76.6886 10.2069L76.7349 9.94319L76.541 9.75849L73.0183 6.40282Z" fill="white" stroke="#FDB53C"/>
</g>
</g>
<defs>
<clipPath id="clip0_95_387">
<rect width="16" height="16" fill="white" transform="translate(0.5)"/>
</clipPath>
<clipPath id="clip1_95_387">
<rect width="16" height="16" fill="white" transform="translate(18.5)"/>
</clipPath>
<clipPath id="clip2_95_387">
<rect width="16" height="16" fill="white" transform="translate(36.5)"/>
</clipPath>
<clipPath id="clip3_95_387">
<rect width="16" height="16" fill="white" transform="translate(54.5)"/>
</clipPath>
<clipPath id="clip4_95_387">
<rect width="16" height="16" fill="white" transform="translate(72.5)"/>
</clipPath>
</defs>
</svg>
