<svg width="89" height="16" viewBox="0 0 89 16" fill="none" xmlns="http://www.w3.org/2000/svg">
<g clip-path="url(#clip0_202_448)">
<path d="M4.36212 15.4425C3.97612 15.6405 3.53812 15.2935 3.61612 14.8505L4.44612 10.1205L0.923118 6.76452C0.594118 6.45052 0.765118 5.87652 1.20612 5.81452L6.10412 5.11852L8.28812 0.791523C8.48512 0.401523 9.01812 0.401523 9.21512 0.791523L11.3991 5.11852L16.2971 5.81452C16.7381 5.87652 16.9091 6.45052 16.5791 6.76452L13.0571 10.1205L13.8871 14.8505C13.9651 15.2935 13.5271 15.6405 13.1411 15.4425L8.75012 13.1865L4.36112 15.4425H4.36212Z" fill="#FDB53C"/>
</g>
<g clip-path="url(#clip1_202_448)">
<path d="M22.3621 15.4425C21.9761 15.6405 21.5381 15.2935 21.6161 14.8505L22.4461 10.1205L18.9231 6.76452C18.5941 6.45052 18.7651 5.87652 19.2061 5.81452L24.1041 5.11852L26.2881 0.791523C26.4851 0.401523 27.0181 0.401523 27.2151 0.791523L29.3991 5.11852L34.2971 5.81452C34.7381 5.87652 34.9091 6.45052 34.5791 6.76452L31.0571 10.1205L31.8871 14.8505C31.9651 15.2935 31.5271 15.6405 31.1411 15.4425L26.7501 13.1865L22.3611 15.4425H22.3621Z" fill="#FDB53C"/>
</g>
<g clip-path="url(#clip2_202_448)">
<path d="M40.3621 15.4425C39.9761 15.6405 39.5381 15.2935 39.6161 14.8505L40.4461 10.1205L36.9231 6.76452C36.5941 6.45052 36.7651 5.87652 37.2061 5.81452L42.1041 5.11852L44.2881 0.791523C44.4851 0.401523 45.0181 0.401523 45.2151 0.791523L47.3991 5.11852L52.2971 5.81452C52.7381 5.87652 52.9091 6.45052 52.5791 6.76452L49.0571 10.1205L49.8871 14.8505C49.9651 15.2935 49.5271 15.6405 49.1411 15.4425L44.7501 13.1865L40.3611 15.4425H40.3621Z" fill="#FDB53C"/>
</g>
<g clip-path="url(#clip3_202_448)">
<path d="M58.3621 15.4425C57.9761 15.6405 57.5381 15.2935 57.6161 14.8505L58.4461 10.1205L54.9231 6.76452C54.5941 6.45052 54.7651 5.87652 55.2061 5.81452L60.1041 5.11852L62.2881 0.791523C62.4851 0.401523 63.0181 0.401523 63.2151 0.791523L65.3991 5.11852L70.2971 5.81452C70.7381 5.87652 70.9091 6.45052 70.5791 6.76452L67.0571 10.1205L67.8871 14.8505C67.9651 15.2935 67.5271 15.6405 67.1411 15.4425L62.7501 13.1865L58.3611 15.4425H58.3621Z" fill="#FDB53C"/>
</g>
<g clip-path="url(#clip4_202_448)">
<path d="M76.3621 15.4425C75.9761 15.6405 75.5381 15.2935 75.6161 14.8505L76.4461 10.1205L72.9231 6.76452C72.5941 6.45052 72.7651 5.87652 73.2061 5.81452L78.1041 5.11852L80.2881 0.791523C80.4851 0.401523 81.0181 0.401523 81.2151 0.791523L83.3991 5.11852L88.2971 5.81452C88.7381 5.87652 88.9091 6.45052 88.5791 6.76452L85.0571 10.1205L85.8871 14.8505C85.9651 15.2935 85.5271 15.6405 85.1411 15.4425L80.7501 13.1865L76.3611 15.4425H76.3621Z" fill="#FDB53C"/>
<mask id="mask0_202_448" style="mask-type:alpha" maskUnits="userSpaceOnUse" x="88" y="0" width="2" height="16">
<rect x="88.25" width="1" height="16" fill="black"/>
</mask>
<g mask="url(#mask0_202_448)">
<path d="M73.2683 6.40282C73.2683 6.40277 73.2682 6.40272 73.2682 6.40268C73.2588 6.39365 73.2551 6.38582 73.2532 6.37752C73.2507 6.36706 73.2506 6.35275 73.2551 6.33777C73.2595 6.32274 73.2663 6.31463 73.2691 6.31201C73.2692 6.31192 73.2693 6.31183 73.2694 6.31174C73.27 6.31106 73.2707 6.31036 73.2757 6.30966L73.2765 6.30955L78.1745 5.61355L78.4329 5.57683L78.5505 5.34382L80.7344 1.01696C80.7384 1.00897 80.7419 1.00484 80.7435 1.00303C80.7452 1.00118 80.7463 1.00046 80.7468 1.00019C80.7477 0.999646 80.7492 0.999023 80.7516 0.999023C80.754 0.999023 80.7555 0.999646 80.7565 1.00019C80.7569 1.00046 80.758 1.00118 80.7597 1.00303C80.7614 1.00484 80.7648 1.00897 80.7688 1.01696L82.9528 5.34382L83.0704 5.57683L83.3288 5.61355L88.2268 6.30955L88.2275 6.30965C88.2325 6.31036 88.2332 6.31105 88.2338 6.31171C88.2339 6.3118 88.234 6.31189 88.2341 6.31198C88.2369 6.31455 88.2435 6.32258 88.248 6.33749C88.2524 6.35233 88.2523 6.3665 88.2498 6.37686C88.2479 6.38511 88.2442 6.39305 88.2345 6.4023L88.2342 6.40254L84.7122 9.75854L84.5184 9.94324L84.5646 10.2069L85.3946 14.9369L85.3947 14.9372C85.398 14.9562 85.3952 14.9676 85.3925 14.9746C85.3892 14.983 85.3836 14.9903 85.3774 14.9951C85.3751 14.997 85.3731 14.9982 85.3718 14.9988C85.3711 14.9985 85.3703 14.9982 85.3694 14.9977C85.3694 14.9977 85.3694 14.9977 85.3693 14.9976L80.9786 12.7418L80.7501 12.6244L80.5215 12.7418L76.1325 14.9978L76.1326 14.9983C76.1322 14.9985 76.1318 14.9987 76.1314 14.9988C76.1301 14.9981 76.1282 14.997 76.1258 14.9951C76.1196 14.9903 76.1141 14.983 76.1107 14.9746C76.108 14.9676 76.1052 14.9562 76.1085 14.9372L76.1086 14.9369L76.9386 10.2069L76.9849 9.94319L76.791 9.75849L73.2683 6.40282Z" fill="white" stroke="#FDB53C"/>
</g>
</g>
<defs>
<clipPath id="clip0_202_448">
<rect width="16" height="16" fill="white" transform="translate(0.75)"/>
</clipPath>
<clipPath id="clip1_202_448">
<rect width="16" height="16" fill="white" transform="translate(18.75)"/>
</clipPath>
<clipPath id="clip2_202_448">
<rect width="16" height="16" fill="white" transform="translate(36.75)"/>
</clipPath>
<clipPath id="clip3_202_448">
<rect width="16" height="16" fill="white" transform="translate(54.75)"/>
</clipPath>
<clipPath id="clip4_202_448">
<rect width="16" height="16" fill="white" transform="translate(72.75)"/>
</clipPath>
</defs>
</svg>
