<svg width="241" height="50" viewBox="0 0 241 50" fill="none" xmlns="http://www.w3.org/2000/svg">
<path d="M217.154 14.2276C217.154 12.977 218.17 12 219.382 12H235.952C237.203 12 238.18 13.0161 238.18 14.2276V22.3565C238.18 23.607 237.164 24.5841 235.952 24.5841H234.233C232.982 24.5841 231.106 25.0921 230.012 25.6783L223.993 29.0393C222.899 29.6255 222.469 29.1956 222.977 28.1014L223.681 26.5772C224.189 25.4439 223.603 24.545 222.352 24.545H219.343C218.092 24.545 217.115 23.5289 217.115 22.3174V14.2276" fill="url(#paint0_linear_202_442)"/>
<path d="M217.155 35.4093C217.272 35.4093 217.389 35.3702 217.467 35.3311C217.545 35.2921 217.584 35.2139 217.584 35.0576C217.584 34.9794 217.584 34.9013 217.545 34.8622C217.506 34.8231 217.467 34.784 217.428 34.7449C217.389 34.7058 217.311 34.7059 217.272 34.7059C217.194 34.7059 217.155 34.7059 217.076 34.7059H216.686V35.3702L217.155 35.4093ZM217.155 34.2369C217.506 34.2369 217.78 34.315 217.936 34.4714C218.092 34.6277 218.21 34.8231 218.21 35.0967C218.21 35.3312 218.132 35.5266 218.014 35.6438C217.897 35.761 217.741 35.8392 217.545 35.8783L218.21 37.0116H217.545L216.881 35.9174H216.646V37.0116H216.06V34.276L217.155 34.2369ZM215.435 36.3082C215.513 36.5427 215.63 36.7381 215.787 36.8944C215.943 37.0507 216.138 37.207 216.334 37.2852C216.568 37.3634 216.803 37.4415 217.037 37.4415C217.311 37.4415 217.545 37.4024 217.741 37.2852C217.975 37.207 218.132 37.0507 218.288 36.8944C218.444 36.7381 218.561 36.5427 218.64 36.3082C218.718 36.0737 218.757 35.8392 218.757 35.6047C218.757 35.3702 218.718 35.1357 218.64 34.9013C218.561 34.6668 218.444 34.4714 218.288 34.315C218.132 34.1587 217.936 34.0024 217.741 33.9242C217.506 33.8461 217.272 33.7679 217.037 33.7679C216.764 33.7679 216.529 33.807 216.334 33.9242C216.099 34.0024 215.943 34.1587 215.787 34.315C215.63 34.4714 215.513 34.6668 215.435 34.9013C215.357 35.1357 215.318 35.3702 215.318 35.6047C215.318 35.8783 215.357 36.1128 215.435 36.3082ZM214.732 34.6277C214.849 34.315 215.044 34.0415 215.279 33.807C215.513 33.5725 215.787 33.3771 216.099 33.2599C216.412 33.1426 216.725 33.0645 217.076 33.0645C217.428 33.0645 217.741 33.1426 218.053 33.2599C218.366 33.3771 218.64 33.5725 218.874 33.807C219.109 34.0415 219.304 34.315 219.421 34.6277C219.538 34.9403 219.617 35.253 219.617 35.6047C219.617 35.9564 219.538 36.2691 219.421 36.5817C219.304 36.8944 219.109 37.168 218.874 37.4024C218.64 37.6369 218.366 37.7933 218.053 37.9496C217.741 38.0668 217.428 38.145 217.076 38.145C216.725 38.145 216.412 38.0668 216.099 37.9496C215.787 37.8323 215.513 37.6369 215.279 37.4024C215.044 37.168 214.849 36.8944 214.732 36.5817C214.614 36.2691 214.536 35.9564 214.536 35.6047C214.536 35.253 214.614 34.9403 214.732 34.6277Z" fill="#2D2E2C"/>
<path d="M208.751 27.9844H205.078C204.804 27.9844 204.726 27.8281 204.726 27.6327L204.765 27.1637C204.843 26.1867 205.742 25.4833 206.953 25.4833C208.126 25.4833 209.064 26.1867 209.142 27.1247L209.181 27.5936C209.181 27.8281 209.103 27.9844 208.751 27.9844ZM206.836 21.6533C202.889 21.6533 200.036 24.5062 200.036 27.75V32.0879C200.036 35.7225 202.733 38.2237 206.836 38.2237C209.064 38.2237 210.666 37.442 211.8 36.3478C212.347 35.8006 212.777 35.1753 213.128 34.55C213.324 34.1983 213.246 33.8466 213.011 33.7294L209.689 32.0489C209.494 31.9316 209.298 32.0098 209.181 32.3224C208.712 33.4949 207.93 34.042 206.797 34.042C205.547 34.042 204.687 33.2213 204.687 32.127V31.3845C204.687 31.15 204.804 31.0328 205.078 31.0328H213.206C213.402 31.0328 213.558 30.9155 213.558 30.681V27.75C213.519 24.5453 210.744 21.6533 206.836 21.6533Z" fill="#2D2E2C"/>
<path d="M192.299 25.7568C193.354 25.7568 194.097 26.4212 194.683 27.789C194.8 28.0235 194.957 28.1016 195.191 27.9844L198.474 26.4993C198.669 26.3821 198.747 26.1867 198.63 25.9131C198.318 25.2097 198.005 24.5844 197.575 24.0372C196.481 22.5521 194.839 21.7314 192.26 21.7314C188.078 21.7314 185.577 24.2326 185.577 27.8672V31.9707C185.577 35.6052 188.078 38.0673 192.26 38.0673C194.605 38.0673 196.168 37.3638 197.262 36.1132C197.849 35.4879 198.278 34.7063 198.63 33.8465C198.747 33.573 198.669 33.4167 198.474 33.2994L195.191 31.7753C194.957 31.658 194.8 31.7362 194.683 31.9707C194.097 33.2994 193.354 34.0029 192.299 34.0029C191.048 34.0029 190.267 33.1431 190.267 32.0488V27.6718C190.267 26.6557 191.088 25.7568 192.299 25.7568Z" fill="#2D2E2C"/>
<path d="M182.646 22.123H178.66C178.425 22.123 178.308 22.2403 178.308 22.4748V37.4037C178.308 37.6382 178.425 37.7554 178.66 37.7554H182.646C182.841 37.7554 182.959 37.6382 182.959 37.4037V22.4748C182.92 22.2012 182.802 22.123 182.646 22.123Z" fill="#2D2E2C"/>
<path d="M180.614 15.5166C179.325 15.5166 178.27 16.5718 178.27 17.8615C178.27 19.1511 179.325 20.2063 180.614 20.2063C181.904 20.2063 182.959 19.1511 182.959 17.8615C182.998 16.5718 181.904 15.5166 180.614 15.5166Z" fill="#2D2E2C"/>
<path d="M176.198 22.123H171.938C171.782 22.123 171.626 22.2403 171.587 22.3966L169.085 29.6266C168.968 29.9783 168.734 30.8772 168.695 31.3071H168.577C168.499 30.8772 168.343 30.0565 168.187 29.6266L165.568 22.3575C165.49 22.2012 165.412 22.123 165.216 22.123H160.957C160.644 22.123 160.566 22.3185 160.644 22.592L166.662 37.4819C166.741 37.6382 166.858 37.7164 167.014 37.7164H170.141C170.297 37.7164 170.453 37.6382 170.492 37.4819L176.55 22.592C176.628 22.3185 176.511 22.123 176.198 22.123Z" fill="#2D2E2C"/>
<path d="M154.196 31.9301C154.196 33.0244 153.297 33.8842 152.124 33.8842C150.913 33.8842 150.092 33.0635 150.092 31.9301V27.9048C150.092 26.8105 150.913 26.0289 152.124 26.0289C153.336 26.0289 154.196 26.8496 154.196 27.9048V31.9301ZM158.494 16.5713H154.547C154.391 16.5713 154.196 16.6885 154.196 16.923V21.5737C154.196 22.0817 154.313 23.0587 154.313 23.0587C153.648 22.4725 152.515 22.1208 151.733 22.1208C148.06 22.1208 145.441 24.5829 145.441 28.2174V31.6175C145.441 35.5256 147.708 37.7141 151.812 37.7141C152.75 37.7141 153.844 37.4015 154.547 36.8152C154.743 36.6589 154.977 36.698 154.977 36.9716V37.4796C154.977 37.5969 155.094 37.7141 155.251 37.7141H158.494C158.69 37.7141 158.846 37.5969 158.846 37.3624V16.8839C158.846 16.6885 158.69 16.5713 158.494 16.5713Z" fill="#2D2E2C"/>
<path d="M136.687 30.5232H134.655C134.303 30.5232 134.186 30.3278 134.264 30.1324L134.967 27.3967C135.319 26.1461 135.554 24.6611 135.632 23.8013H135.749C135.827 24.6611 136.023 26.1461 136.335 27.3967L137.039 30.1324C137.117 30.2887 136.961 30.5232 136.687 30.5232ZM137.469 16.8058C137.39 16.6495 137.312 16.5713 137.117 16.5713H134.108C133.912 16.5713 133.834 16.6495 133.756 16.8058L127.229 37.2842C127.112 37.5578 127.268 37.7141 127.581 37.7141H131.802C131.958 37.7141 132.036 37.6359 132.114 37.4796L133.092 34.4313C133.17 34.275 133.209 34.2359 133.443 34.2359H137.859C138.094 34.2359 138.172 34.275 138.211 34.4313L139.149 37.4796C139.227 37.6359 139.266 37.7141 139.501 37.7141H143.761C144.112 37.7141 144.191 37.5578 144.112 37.2842L137.469 16.8058Z" fill="#2D2E2C"/>
<path d="M115.154 27.9844H111.48C111.206 27.9844 111.128 27.8281 111.128 27.6327L111.167 27.1637C111.245 26.1867 112.144 25.4833 113.356 25.4833C114.528 25.4833 115.466 26.1867 115.544 27.1247L115.583 27.5936C115.544 27.8281 115.505 27.9844 115.154 27.9844ZM113.2 21.6533C109.252 21.6533 106.399 24.5062 106.399 27.75V32.0879C106.399 35.7225 109.096 38.2237 113.2 38.2237C115.427 38.2237 117.029 37.442 118.163 36.3478C118.71 35.8006 119.14 35.1753 119.492 34.55C119.687 34.1983 119.609 33.8466 119.374 33.7294L116.052 32.0489C115.857 31.9316 115.662 32.0098 115.544 32.3224C115.075 33.4949 114.294 34.042 113.16 34.042C111.91 34.042 111.05 33.2213 111.05 32.127V31.3845C111.05 31.15 111.167 31.0328 111.441 31.0328H119.531C119.726 31.0328 119.882 30.9155 119.882 30.681V27.75C119.921 24.5453 117.147 21.6533 113.2 21.6533Z" fill="#2D2E2C"/>
<path d="M104.406 22.2012C104.172 22.1621 103.898 22.123 103.546 22.123C102.257 22.123 101.045 22.7093 100.537 23.4127C100.381 23.569 100.107 23.53 100.107 23.2564V22.4748C100.107 22.2403 99.9901 22.123 99.7556 22.123H96.5509C96.3555 22.123 96.1992 22.2403 96.1992 22.4748V37.4037C96.1992 37.6382 96.3165 37.7554 96.5509 37.7554H100.498C100.694 37.7554 100.85 37.6382 100.85 37.4037V28.4932C100.85 27.3208 101.671 26.461 102.882 26.461C103.39 26.461 103.82 26.5392 104.211 26.6174C104.523 26.6955 104.719 26.5783 104.719 26.2656V22.4748C104.719 22.3575 104.602 22.2012 104.406 22.2012Z" fill="#2D2E2C"/>
<path d="M86.6238 34.1201H85.3732C84.6697 34.1201 84.2789 33.6902 84.2789 32.7523C84.2789 32.0879 84.7479 31.6189 85.4123 31.6189H88.2652C88.4606 31.6189 88.5388 31.9707 88.5388 32.0879C88.4606 33.2994 87.5227 34.1201 86.6238 34.1201ZM86.5066 21.7314C84.4353 21.7314 82.872 22.3958 81.7387 23.451C81.1134 24.0372 80.6053 24.7016 80.1754 25.4441C79.98 25.7959 80.0582 26.1476 80.2927 26.2648L83.6146 27.9453C83.81 28.0626 84.0054 27.9844 84.1226 27.6718C84.5916 26.4993 85.3732 25.9522 86.5066 25.9522C87.7572 25.9522 88.5388 26.812 88.5388 27.8672V28.0235C88.5388 28.258 88.4215 28.3752 88.187 28.3752H85.2169C82.2467 28.3752 79.8628 29.9775 79.8628 32.7914V33.1431C79.8628 35.996 82.0122 37.7156 84.9042 37.7156H86.0767C86.9755 37.7156 87.9916 37.4029 88.6951 36.8558C88.8123 36.7385 89.0077 36.7776 89.0468 36.8949L89.1641 37.4811C89.2031 37.6374 89.3204 37.7546 89.5158 37.7546H92.7986C92.994 37.7546 93.1503 37.6374 93.1503 37.4029V27.9062C93.1503 24.2717 90.6101 21.7314 86.5066 21.7314Z" fill="#2D2E2C"/>
<path d="M78.5337 22.123H74.4693C74.2739 22.123 74.1176 22.2403 74.1176 22.3966L72.5934 28.6886C72.4371 29.3921 72.2807 30.4082 72.2417 31.1117H72.1244C72.0853 30.4082 71.9681 29.5093 71.7727 28.6886L70.2485 22.3966C70.2094 22.2403 70.0922 22.123 69.8968 22.123H66.5749C66.3795 22.123 66.2623 22.2403 66.2232 22.3966L64.7381 28.6886C64.5818 29.3921 64.4255 30.291 64.3864 30.9553H64.3082C64.2691 30.291 64.1519 29.3921 63.9565 28.6886L62.3933 22.3966C62.3542 22.2403 62.276 22.123 62.0415 22.123H57.8989C57.5863 22.123 57.5081 22.2794 57.5863 22.5529L62.3151 37.4819C62.3933 37.6382 62.4714 37.7164 62.6668 37.7164H65.637C65.8324 37.7164 65.9496 37.6382 65.9887 37.4819L67.8255 30.5255C68.0209 29.7438 68.1772 28.4542 68.1772 28.4542H68.2945C68.2945 28.4542 68.4508 29.7829 68.6462 30.5255L70.4439 37.4428C70.483 37.5991 70.5612 37.7164 70.7957 37.7164H73.7267C73.8831 37.7164 74.0003 37.6382 74.0785 37.4819L78.8854 22.5529C78.9636 22.3185 78.8463 22.123 78.5337 22.123Z" fill="#2D2E2C"/>
<path d="M55.9059 22.1224H53.6392C53.3266 22.1224 53.2484 22.0052 53.2484 21.7707V19.6603C53.2484 19.4258 53.1703 19.3477 52.9358 19.3477H50.8254C50.7082 19.3477 50.5128 19.4258 50.4346 19.504L46.2529 23.6856V25.9523C46.2529 26.1868 46.3702 26.265 46.6047 26.265H48.2851C48.5978 26.265 48.6759 26.3822 48.6759 26.6167V31.8536C48.6759 35.8789 51.1771 37.9502 54.3818 37.9502H55.7887C56.1013 37.9502 56.2186 37.833 56.2186 37.5985V34.1593C56.2186 33.9639 56.1013 33.8076 55.8668 33.8076H55.3197C53.9519 33.8076 53.2875 32.9869 53.2875 31.5409V26.6558C53.2875 26.4213 53.4047 26.3041 53.6783 26.3041H55.945C56.1795 26.3041 56.2577 26.2259 56.2577 25.9914V22.4351C56.2186 22.2006 56.1404 22.1224 55.9059 22.1224Z" fill="#2D2E2C"/>
<path d="M45.862 16.4152C45.2758 16.2979 44.3378 16.1807 43.4781 16.1807C38.5148 16.1807 36.6389 19.6198 36.6389 22.3555V23.1762C36.6389 23.4107 36.5216 23.5279 36.2872 23.5279H35.5055C35.3101 23.5279 35.1538 23.6451 35.1538 23.8796V27.3969C35.1538 27.6314 35.2711 27.7486 35.5055 27.7486H36.2872C36.5998 27.7486 36.6389 27.8659 36.6389 28.1004V37.4407C36.6389 37.6752 36.7561 37.7925 36.9906 37.7925H40.9378C41.1723 37.7925 41.2895 37.6752 41.2895 37.4407V28.1004C41.2895 27.8659 41.4068 27.7486 41.6413 27.7486H43.8298C44.0643 27.7486 44.1815 27.6314 44.1815 27.3969V23.8796C44.1815 23.6451 44.0643 23.5279 43.8298 23.5279H41.6413C41.3677 23.5279 41.2895 23.4107 41.2895 23.1762V22.2773C41.2895 21.1049 42.1102 20.3623 43.3999 20.3623C43.8298 20.3623 44.2988 20.4405 44.6896 20.5187C44.9241 20.5968 45.0413 20.5187 45.1195 20.3233L46.1746 16.8841C46.2137 16.6496 46.1356 16.4542 45.862 16.4152Z" fill="#2D2E2C"/>
<path d="M28.5091 32.127C28.5091 33.2213 27.6493 34.081 26.4768 34.081C25.2263 34.081 24.3665 33.2213 24.3665 32.127V27.7499C24.3665 26.6947 25.2263 25.7959 26.4768 25.7959C27.6493 25.7959 28.5091 26.6556 28.5091 27.7499V32.127ZM26.4768 21.7314C22.3733 21.7314 19.6768 24.2326 19.6768 27.8672V31.9707C19.6768 35.6052 22.3733 38.0673 26.4768 38.0673C30.5022 38.0673 33.1988 35.6052 33.1988 31.9707V27.8672C33.1988 24.2326 30.5022 21.7314 26.4768 21.7314Z" fill="#2D2E2C"/>
<path d="M12.4873 25.0921C10.6505 24.3887 8.65738 23.8806 8.65738 22.3565C8.65738 21.145 9.55624 20.3243 10.7287 20.3243H11.2367C12.3701 20.3243 13.1517 20.8714 13.6207 22.0438C13.7379 22.3565 13.9333 22.3956 14.1287 22.3174L17.4506 20.6369C17.646 20.5197 17.7632 20.1679 17.5678 19.8162C17.2943 19.3082 16.9816 18.8001 16.5517 18.3702C15.3793 17.0805 13.6988 16.1035 11.2367 16.1035H10.7287C6.54701 16.1035 3.92858 18.6047 3.92858 22.3956C3.92858 26.2646 6.42977 27.7106 9.51716 28.9612C11.5494 29.7819 13.2689 30.2117 13.2689 31.8922C13.2689 33.2601 12.2137 33.8854 11.0022 33.8854H10.1815C9.04819 33.8854 8.26657 33.3382 7.7976 32.1658C7.68036 31.8532 7.48495 31.8141 7.28955 31.8922L3.96766 33.5727C3.77226 33.6899 3.65502 34.0417 3.85042 34.3934C4.16307 34.9405 4.5148 35.4486 4.94469 35.9566C6.07804 37.2463 7.75852 38.1061 10.1425 38.1061H11.1976C15.4575 38.1061 17.9587 35.644 17.9587 31.8531C17.9587 27.906 15.6529 26.3427 12.4873 25.0921Z" fill="#2D2E2C"/>
<defs>
<linearGradient id="paint0_linear_202_442" x1="227.679" y1="15.1397" x2="227.679" y2="30.9438" gradientUnits="userSpaceOnUse">
<stop stop-color="#F2C069"/>
<stop offset="1" stop-color="#EB8F3B"/>
</linearGradient>
</defs>
</svg>
